  <?xml version="1.0" encoding="utf-8"?><!DOCTYPE svg PUBLIC "-//W3C//DTD SVG 1.1//EN" "http://www.w3.org/Graphics/SVG/1.1/DTD/svg11.dtd">
<svg aria-hidden="true" style="position: absolute; width: 0; height: 0; overflow: hidden;" version="1.1" xmlns="http://www.w3.org/2000/svg" xmlns:xlink="http://www.w3.org/1999/xlink">
    <defs>
    <symbol id="icon-1" viewBox="0 0 32 32">
    <path d="M12.486 13.365h1.955l-2.552 5.524h1.923l2.632-5.734v-1.265h-5.573v2.452h1.615z"></path>
    <path d="M29.802 0.159c-1.204 0-2.18 0.976-2.18 2.182 0 0.872 0.515 1.619 1.256 1.968v8.304c0 0.475-0.385 0.86-0.862 0.86h-0.394v-5.897c0-1.926-1.213-3.569-2.912-4.217-0.263-1.68-1.715-2.971-3.468-2.971h-14.879c-1.754 0-3.206 1.291-3.468 2.971-1.698 0.648-2.911 2.291-2.911 4.217v15.63c0 2.488 2.024 4.516 4.514 4.516h2.372v1.937c0 1.205 0.978 2.183 2.184 2.183h9.499c1.203 0 2.183-0.977 2.183-2.183v-1.937h2.373c2.488 0 4.514-2.026 4.514-4.516v-7.824h0.394c1.53 0 2.771-1.242 2.771-2.77v-8.336c0.708-0.36 1.196-1.087 1.196-1.934-0.001-1.206-0.81-2.183-2.182-2.183zM6.363 2.297h14.879c0.576 0 1.076 0.306 1.362 0.761h-17.601c0.284-0.455 0.786-0.761 1.361-0.761zM16.926 6.242v18.294h-6.564v-18.294h6.564zM8.453 24.536h-3.955c-0.734 0-1.33-0.596-1.33-1.33v-15.631c0-0.734 0.596-1.331 1.33-1.331h3.956v18.293zM18.827 29.658c0 0.151-0.124 0.274-0.274 0.274h-9.499c-0.152 0-0.274-0.124-0.274-0.274v-1.939h10.045v1.939h0.002zM24.441 23.205c0 0.734-0.597 1.33-1.329 1.33h-4.274v-18.294h4.274c0.732 0 1.329 0.597 1.329 1.331v15.632z"></path>
    <path d="M3.805 14.606h1.207v-0.729h1.459l-1.907 4.127h1.438l1.967-4.283v-0.946h-4.165z"></path>
    <path d="M19.539 14.606h1.207v-0.729h1.46l-1.907 4.127h1.438l1.967-4.283v-0.946h-4.166z"></path>
    </symbol>
    <symbol id="icon-esports" viewBox="0 0 32 32">
    <path d="M20.945 20.415c0.142-0.392 0.575-0.594 0.967-0.453 0.39 0.141 0.594 0.573 0.452 0.966-0.141 0.392-0.573 0.594-0.965 0.453-0.392-0.142-0.594-0.574-0.454-0.966zM20.355 20.714c0.392 0.14 0.594 0.572 0.453 0.965-0.142 0.393-0.573 0.596-0.966 0.454-0.39-0.142-0.594-0.575-0.453-0.966 0.142-0.393 0.575-0.595 0.966-0.453zM10.836 15.805c0.514 0.141 0.817 0.673 0.675 1.187-0.117 0.43-0.507 0.712-0.933 0.712-0.084 0-0.169-0.012-0.255-0.035l-0.622-0.17-0.17 0.623c-0.117 0.43-0.507 0.711-0.932 0.711-0.085 0-0.17-0.010-0.257-0.034-0.515-0.141-0.817-0.673-0.676-1.188l0.17-0.622-0.623-0.17c-0.515-0.141-0.817-0.674-0.676-1.189 0.141-0.514 0.673-0.817 1.188-0.676l0.622 0.17 0.171-0.623c0.14-0.514 0.673-0.818 1.188-0.677 0.514 0.141 0.817 0.674 0.676 1.189l-0.17 0.623 0.623 0.169zM20.457 19.705c-0.392-0.142-0.593-0.575-0.454-0.967 0.142-0.392 0.575-0.594 0.967-0.452 0.39 0.141 0.594 0.572 0.452 0.965-0.142 0.392-0.574 0.595-0.965 0.454zM18.901 20.456c-0.392-0.141-0.594-0.574-0.453-0.966s0.574-0.594 0.966-0.453c0.389 0.142 0.593 0.574 0.452 0.966-0.142 0.392-0.573 0.595-0.965 0.453zM29.824 4.087c-1.233-0.884-2.586-1.851-4.262-3.044-1.101-0.783-2.428-1.145-3.738-1.017-1.269 0.123-2.468 0.7-3.392 1.625-0.521-0.286-1.267-0.657-2.093-0.952-2.884-1.031-4.368-0.271-5.106 0.549-1.008 1.121-0.633 2.59-0.303 3.886 0.244 0.961 0.498 1.954 0.309 2.882-0.14 0.695-0.541 1.322-1.204 1.902-1.22-0.219-1.655-0.152-1.801-0.128-0.475 0.079-1.171 0.388-2.068 0.919l-0.001 0.001c-0.921 0.545-1.685 1.332-2.211 2.278-0.398 0.688-3.615 6.528-3.845 7.16-0.402 1.109-0.347 2.312 0.155 3.383s1.39 1.883 2.5 2.284c1.442 0.522 3.017 0.266 4.227-0.681 0.48-0.333 2.030-1.486 3.023-2.231 0.139-0.104 0.319-0.131 0.483-0.071l4.597 1.663c0.162 0.059 0.284 0.195 0.324 0.363 0.277 1.168 0.741 3.080 0.897 3.652 0.325 1.503 1.371 2.706 2.811 3.227 0.495 0.18 1.003 0.265 1.502 0.265 1.811 0 3.516-1.121 4.166-2.921 0.167-0.462 0.991-4.663 1.4-6.781l0.224-1.158c0.566-2.943-1.064-5.818-3.874-6.836-1.167-0.422-2.432-0.473-3.623-0.153l-4.745-1.717c-0.543-0.771-1.262-1.402-2.092-1.846 1.701-2.077 1.132-4.319 0.721-5.93-0.28-1.098-0.428-1.788-0.133-2.116 0.838-0.932 3.119-0.106 4.64 0.699-0.061 0.141-0.122 0.284-0.181 0.438-0.879 2.357-0.097 4.926 1.947 6.391 1.243 0.892 2.598 1.859 4.262 3.044 0.956 0.68 2.083 1.043 3.223 1.043 0.172 0 0.345-0.009 0.516-0.025 1.287-0.125 2.503-0.715 3.431-1.663 0.019-0.014 0.037-0.026 0.056-0.039l0.122-0.091 0.737-1.032 0.043-0.101c0.028-0.068 0.057-0.136 0.086-0.203 0.066-0.158 0.137-0.322 0.201-0.494 0.894-2.372 0.117-4.953-1.935-6.426zM18.91 17.574l0.562-0.217c0.644-0.248 1.327-0.256 1.975-0.022 1.24 0.449 1.988 1.675 1.84 2.972l-0.044 0.272c-0.103 0.639-1.311 6.69-1.497 7.448-0.241 0.593-0.915 0.896-1.524 0.676-0.399-0.144-0.675-0.472-0.761-0.897l-0.014-0.065-0.019-0.062c-0.095-0.329-0.512-2.029-0.876-3.567-0.292-1.231-1.176-2.222-2.364-2.652l-4.597-1.664c-0.415-0.151-0.846-0.224-1.274-0.224-0.797 0-1.581 0.256-2.239 0.749-1.294 0.972-2.675 1.991-2.956 2.182l-0.054 0.036-0.052 0.042c-0.338 0.272-0.758 0.345-1.158 0.2-0.301-0.108-0.542-0.329-0.678-0.621-0.133-0.281-0.152-0.593-0.055-0.886 0.332-0.717 3.265-6.106 3.602-6.652l0.037-0.064c0.248-0.45 0.608-0.822 1.040-1.078 0.292-0.172 0.719-0.399 0.945-0.495 0.209 0.019 0.6 0.077 0.925 0.141l0.033 0.005c0.164 0.028 0.327 0.073 0.487 0.131 0.648 0.235 1.168 0.677 1.505 1.281l0.293 0.527 6.915 2.505zM29.949 9.824c-0.051 0.134-0.109 0.272-0.171 0.416-0.018 0.039-0.034 0.079-0.051 0.117l-0.43 0.601c-0.042 0.033-0.088 0.074-0.136 0.124-1.272 1.33-3.203 1.518-4.697 0.455-1.663-1.184-3.015-2.149-4.257-3.040-1.324-0.951-1.832-2.617-1.262-4.145 0.052-0.137 0.111-0.278 0.177-0.428 0.019-0.042 0.036-0.084 0.055-0.127l0.136-0.19c0.058-0.054 0.111-0.113 0.157-0.183 0.028-0.044 0.050-0.089 0.070-0.136l0.066-0.095c0.042-0.032 0.089-0.073 0.136-0.123 1.274-1.33 3.205-1.518 4.698-0.456 1.673 1.192 3.026 2.157 4.257 3.040 1.331 0.955 1.834 2.631 1.253 4.168zM23.587 5.138c0.452 0.282 0.589 0.88 0.305 1.332-0.184 0.293-0.497 0.453-0.82 0.453-0.176 0-0.353-0.048-0.512-0.147l-1.696-1.064c-0.453-0.285-0.589-0.881-0.305-1.334s0.88-0.588 1.332-0.304l1.696 1.064z"></path>
    </symbol>
    <symbol id="icon-livecasino" viewBox="0 0 32 32">
    <path d="M15.984 0.35c-8.629 0-15.648 7.022-15.648 15.648 0 8.631 7.021 15.65 15.648 15.65s15.648-7.021 15.648-15.65c0.001-8.627-7.020-15.648-15.648-15.648zM28.734 15.28h-3.489c-0.144-2.029-0.937-3.881-2.179-5.345l2.438-2.438c1.869 2.093 3.063 4.802 3.23 7.782zM16.704 3.251c2.98 0.166 5.689 1.358 7.781 3.229l-2.436 2.436c-1.458-1.263-3.311-2.077-5.346-2.236v-3.428zM15.264 3.251v3.428c-2.035 0.159-3.887 0.974-5.346 2.236l-2.436-2.434c2.092-1.872 4.8-3.064 7.781-3.23zM6.465 7.498l2.438 2.438c-1.242 1.463-2.035 3.315-2.178 5.345h-3.49c0.166-2.98 1.358-5.689 3.23-7.782zM3.235 16.719h3.495c0.168 2.013 0.979 3.843 2.229 5.287l-2.495 2.496c-1.87-2.092-3.063-4.8-3.229-7.783zM15.264 28.747c-2.981-0.165-5.689-1.357-7.781-3.229l2.497-2.497c1.449 1.232 3.278 2.024 5.284 2.182v3.544zM15.264 23.758v0.004c-1.611-0.149-3.084-0.784-4.267-1.757-0.167-0.138-0.326-0.286-0.482-0.436-0.017-0.018-0.035-0.031-0.053-0.049-0.169-0.169-0.331-0.347-0.485-0.529-0.994-1.181-1.649-2.655-1.809-4.272-0.025-0.258-0.038-0.516-0.038-0.78 0-0.222 0.015-0.441 0.033-0.659 0.136-1.634 0.771-3.129 1.756-4.327 0.138-0.166 0.286-0.326 0.437-0.483 0.017-0.016 0.031-0.035 0.048-0.053 0.169-0.168 0.346-0.33 0.529-0.486 1.194-1.005 2.689-1.664 4.33-1.813v0.002c0.238-0.021 0.478-0.035 0.72-0.035s0.483 0.016 0.72 0.035v-0.001c1.641 0.151 3.136 0.808 4.331 1.813 0.182 0.155 0.359 0.318 0.53 0.488 0.011 0.011 0.022 0.024 0.032 0.035 0.156 0.161 0.309 0.325 0.452 0.498 0.987 1.196 1.62 2.693 1.756 4.327 0.020 0.218 0.033 0.437 0.033 0.659 0 0.264-0.015 0.522-0.038 0.78-0.16 1.618-0.815 3.092-1.809 4.272-0.308 0.367-0.65 0.708-1.019 1.014-1.184 0.974-2.657 1.61-4.267 1.757v-0.004c-0.238 0.023-0.478 0.035-0.72 0.035s-0.483-0.011-0.72-0.035zM16.704 28.747v-3.545c2.007-0.157 3.833-0.95 5.284-2.182l2.497 2.497c-2.091 1.873-4.8 3.065-7.781 3.23zM25.503 24.502l-2.494-2.496c1.249-1.445 2.062-3.275 2.229-5.287h3.495c-0.166 2.98-1.36 5.691-3.23 7.783z"></path>
    <path d="M17.789 18.823c-0.002 0.023-0.007 0.050-0.007 0.075 0 0.628 0.511 1.137 1.139 1.137s1.14-0.508 1.14-1.137c0-0.63-0.511-1.139-1.14-1.139-0.050 0-0.098 0.006-0.147 0.016l-0.943-0.946c0.119-0.263 0.192-0.553 0.192-0.859 0-0.292-0.062-0.57-0.17-0.822l0.941-0.94c0.043 0.005 0.084 0.014 0.128 0.014 0.628 0 1.14-0.51 1.14-1.14 0-0.628-0.511-1.138-1.14-1.138-0.627 0-1.139 0.509-1.139 1.138 0 0.032 0.007 0.062 0.009 0.093l-0.94 0.939c-0.272-0.132-0.574-0.213-0.896-0.213-0.307 0-0.597 0.072-0.859 0.193l-0.865-0.865c0.006-0.048 0.015-0.097 0.015-0.147 0-0.628-0.51-1.138-1.139-1.138s-1.139 0.509-1.139 1.138c0 0.629 0.51 1.14 1.139 1.14 0.025 0 0.049-0.006 0.075-0.007l0.896 0.896c-0.12 0.263-0.192 0.552-0.192 0.859 0 0.323 0.081 0.626 0.213 0.897l-0.9 0.9c-0.031-0.002-0.061-0.008-0.091-0.008-0.629 0-1.139 0.508-1.139 1.139 0 0.628 0.51 1.137 1.139 1.137s1.139-0.508 1.139-1.137c0-0.044-0.008-0.085-0.014-0.13l0.903-0.9c0.251 0.107 0.529 0.169 0.822 0.169 0.306 0 0.595-0.071 0.858-0.19l0.975 0.976z"></path>
    <path d="M22.919 6.447c0 0.574-0.465 1.039-1.039 1.039s-1.039-0.465-1.039-1.039c0-0.574 0.465-1.039 1.039-1.039s1.039 0.465 1.039 1.039z"></path>
    </symbol>
    <symbol id="icon-sports" viewBox="0 0 32 32">
    <path d="M25.323 3.086c-3.465-2.487-7.682-3.508-11.903-2.843-4.175 0.668-7.862 2.932-10.393 6.396-2.487 3.464-3.508 7.684-2.842 11.902 0.667 4.22 2.976 7.906 6.44 10.393 2.752 2 5.995 3.020 9.327 3.020 0.844 0 1.732-0.089 2.576-0.222 4.22-0.667 7.906-2.976 10.393-6.439 2.532-3.375 3.554-7.595 2.843-11.814-0.667-4.219-2.976-7.906-6.44-10.393zM5.292 11.525l4.841-1.866 1.155 1.599-0.933 2.976-0.976 3.020-1.821 0.576-2.798-4.22c0.087-0.753 0.309-1.462 0.532-2.085zM14.707 4.729c0.844-0.088 1.689-0.133 2.488-0.044l3.11 3.82-1.154 1.598h-6.264l-1.154-1.598 2.973-3.776zM15.952 20.94l-4.708-3.375 1.776-5.509h5.774l1.823 5.509-2.356 1.688-2.309 1.688zM10.265 26.003c-0.667-0.401-1.331-0.801-1.865-1.288l-0.267-5.063 1.91-0.622 5.064 3.642v1.954l-4.842 1.377zM17.016 22.583l2.445-1.777 2.532-1.821 1.955 0.622-0.222 4.93c-0.578 0.533-1.2 1.020-1.866 1.421l-4.842-1.288v-2.088zM24.48 17.742l-1.956-0.623-1.909-5.863 1.198-1.644 4.708 1.776c0.312 0.71 0.578 1.422 0.71 2.132l-2.751 4.222zM26.787 9.171l-0.132 0.178-4.575-1.732-3.152-3.908 0.087-0.133c1.6 0.401 3.108 1.066 4.487 2.089 1.332 0.975 2.444 2.175 3.285 3.507zM12.799 3.663l0.133 0.179-3.065 3.819-4.663 1.865-0.090-0.133c0.179-0.312 0.356-0.577 0.579-0.844 1.732-2.443 4.219-4.174 7.107-4.886zM3.248 15.256l0.178-0.045 2.71 4.088 0.267 5.018-0.089 0.045c-1.555-1.777-2.532-3.955-2.931-6.306-0.134-0.935-0.178-1.867-0.134-2.8zM11.288 27.869v-0.178l4.707-1.332 4.887 1.288v0.089c-3.020 1.29-6.44 1.377-9.593 0.133zM26.345 23.472c-0.178 0.222-0.356 0.445-0.533 0.668l-0.179-0.088 0.221-4.887 2.754-4.22 0.133 0.044c0.222 2.931-0.532 5.951-2.397 8.483z"></path>
    </symbol>
    <symbol id="icon-virtual" viewBox="0 0 32 32">
    <path d="M9.753 10.198h2.338v-2.338h-2.338v2.338zM27.818 4.563h-14.58v3.245h14.237v17.573h-21.675v-12.774h-3.246v13.116c0 1.6 1.302 2.903 2.902 2.903h9.531v1.014c0 0.051 0.010 0.098 0.016 0.146l-2.924 0.041c-0.538 0.006-0.968 0.449-0.96 0.986 0.007 0.538 0.449 0.968 0.986 0.96l9.093-0.119c0.537-0.008 0.968-0.451 0.96-0.988-0.007-0.538-0.449-0.968-0.987-0.96l-2.948 0.038c0.003-0.034 0.011-0.067 0.011-0.104v-1.014h9.585c1.6 0 2.903-1.302 2.903-2.903v-18.258c-0.002-1.6-1.304-2.902-2.905-2.902zM11.053 12.347c-1.125 1.558-1.577 3.461-1.271 5.357s1.331 3.56 2.889 4.686c1.239 0.896 2.698 1.365 4.198 1.365 0.384 0 0.771-0.032 1.158-0.093 1.896-0.307 3.563-1.332 4.688-2.89 1.126-1.556 1.579-3.461 1.271-5.355-0.305-1.898-1.331-3.562-2.889-4.687-1.556-1.126-3.459-1.579-5.356-1.273-1.899 0.308-3.562 1.335-4.688 2.891zM12.538 20.309c-0.691-0.798-1.153-1.769-1.324-2.834-0.068-0.422-0.084-0.843-0.060-1.258l0.083-0.022 1.219 1.837 0.123 2.263-0.040 0.014zM11.799 15.469c0.068-0.325 0.16-0.64 0.275-0.927l2.164-0.836 0.516 0.711-0.43 1.331-0.437 1.36-0.825 0.266-1.264-1.905zM15.553 14.776l2.608-0.007 0.811 2.477-1.054 0.769-1.051 0.769-2.114-1.528 0.8-2.479zM13.46 20.477l-0.124-2.276 0.856-0.278 2.27 1.641-0.001 0.887-2.16 0.6c-0.306-0.17-0.592-0.366-0.841-0.574zM14.771 21.892l0.004-0.066 2.124-0.592 2.188 0.584 0.001 0.038c-1.362 0.562-2.913 0.593-4.317 0.036zM20.345 20.398c-0.267 0.243-0.546 0.456-0.831 0.63l-2.183-0.582v-0.927l2.237-1.635 0.871 0.284-0.095 2.23zM22.549 16.095l0.057 0.017c0.104 1.311-0.237 2.663-1.065 3.812-0.077 0.108-0.162 0.205-0.245 0.306l-0.071-0.029 0.096-2.201 1.228-1.905zM20.705 17.342l-0.88-0.288-0.864-2.632 0.541-0.738 2.12 0.79c0.141 0.319 0.249 0.638 0.325 0.95l-1.242 1.917zM18.221 10.971c0.72 0.172 1.406 0.487 2.026 0.933 0.612 0.442 1.106 0.985 1.487 1.587l-0.063 0.073-2.066-0.77-1.429-1.756 0.045-0.066zM16.29 11.493c0.388-0.046 0.766-0.052 1.12-0.020l1.383 1.702-0.526 0.723-2.808 0.008-0.517-0.717 1.348-1.697zM15.444 11l0.055 0.089-1.37 1.727-2.114 0.815-0.038-0.050c0.080-0.131 0.161-0.261 0.251-0.386 0.792-1.097 1.92-1.862 3.215-2.196zM4.176 10.827h4.096v-4.095h-4.096v4.095zM9.402 5.411h2.050v-2.050h-2.050v2.050zM1.248 4.386h4.155v-4.155h-4.155v4.155z"></path>
    </symbol>
    <symbol id="icon-brand-en" viewBox="0 0 58 32">
    <path d="M26.8 11.1h4.1c0.9 0 1.6 0.2 2.1 0.7s0.8 1.1 0.8 1.9c0 0.6-0.2 1.1-0.5 1.6-0.3 0.4-0.8 0.8-1.5 1.1 0.9 0.1 1.6 0.4 2 0.9s0.7 1.1 0.7 1.9c0 1-0.4 1.8-1.1 2.4s-1.7 0.9-3 0.9h-3.7v-11.4zM29.4 13.4v2.2h0.3c0.4 0 0.7-0.1 0.9-0.3s0.3-0.5 0.3-0.9c0-0.3-0.1-0.6-0.3-0.8s-0.5-0.3-0.8-0.3h-0.4zM29.4 17.7v2.7h0.9c0.4 0 0.8-0.1 1.1-0.4 0.3-0.2 0.4-0.6 0.4-1s-0.1-0.7-0.4-1c-0.3-0.2-0.6-0.4-1.1-0.4h-0.9z"></path>
    <path d="M34.7 11.1h6.5v2.3h-3.9v2.1h3.7v2.2h-3.6v2.5h3.9v2.3h-6.5v-11.4z"></path>
    <path d="M41.5 11.1h7v2.3h-2.2v9.1h-2.7v-9.1h-2.1v-2.3z"></path>
    </symbol>
    <symbol id="icon-brand-zh" viewBox="0 0 58 32">
    <path d="M29.9 15c-0.4 0-0.8 0-1.1 0.1v-0.6c-0.7 0.5-1.1 0.7-1.8 1-0.3-0.9-0.4-1.2-0.8-1.9 1.1-0.4 2.1-1 2.9-1.8 0.6-0.6 1.1-1.2 1.4-1.7h1.9c0.4 0.7 0.8 1.1 1.4 1.7 0.9 0.8 1.8 1.3 2.9 1.7-0.4 0.7-0.5 1.3-0.8 2-0.8-0.4-1.2-0.6-1.9-1.1v0.7c-0.3 0-0.7-0.1-1.1-0.1h-0.7v0.8h2.5c0.7 0 1 0 1.3-0.1v1.9c-0.3-0.1-0.7-0.1-1.3-0.1h-0.9l1.4 0.6c-0.3 0.8-0.6 1.4-0.8 1.9h0.6c0.6 0 1 0 1.4-0.1v2c-0.4-0.1-0.9-0.1-1.4-0.1h-7c-0.6 0-1 0-1.5 0.1v-2c0.4 0.1 0.9 0.1 1.5 0.1h0.3c-0.2-0.8-0.4-1.1-0.8-1.9l1.4-0.6h-0.8c-0.5 0-0.9 0-1.3 0.1v-1.9c0.3 0.1 0.7 0.1 1.3 0.1h2.4v-0.8h-0.6zM30.5 17.7h-1.4c0.3 0.6 0.5 1 0.8 1.9l-1.4 0.5h2v-2.4zM32.7 13.3c-0.6-0.5-0.9-0.9-1.3-1.5-0.4 0.6-0.7 0.9-1.3 1.5h2.6zM34.1 20.1l-1.3-0.5c0.5-0.8 0.6-1.1 0.8-1.9h-1.4v2.4h1.9z"></path>
    <path d="M40.9 10.8c0-0.3 0-0.6 0-0.8h1.8c0 0.2-0.1 0.5-0.1 0.8v0.2h2.8c0.6 0 0.9 0 1.3-0.1 0 0.3 0 0.5 0 1v1.4c0 0.4 0 0.7 0.1 1h-0.9v1.2c-0.4-0.1-0.7-0.1-1.3-0.1h-2.1v1.1h2c0.7 0 0.9 0 1.3-0.1v1.9c-0.3 0-0.5-0.1-1-0.1 0.3 0.6 0.3 0.6 0.6 1.1l-0.9 0.7h1c0.6 0 0.9 0 1.3-0.1v2c-0.4-0.1-0.9-0.1-1.5-0.1h-7.1c-0.6 0-1.1 0-1.5 0.1v-2c0.4 0.1 0.8 0.1 1.3 0.1h2.7v-1.6h-1.7c-0.6 0-0.9 0-1.3 0.1v-1.9c0.4 0.1 0.7 0.1 1.3 0.1h1.7v-1.1h-1.7c-0.6 0-1 0-1.3 0.1v-1.2h-0.8c0-0.3 0.1-0.6 0.1-1v-1.4c0-0.4 0-0.7 0-1 0.4 0 0.7 0.1 1.3 0.1h2.7v-0.4zM45.1 12.8h-6.5v0.9h6.5v-0.9zM42.5 20h1.3c-0.1-0.4-0.3-0.7-0.5-1.1l0.9-0.4h-1.7v1.5z"></path>
    <path d="M47.9 11.4c0-0.6 0-1-0.1-1.5h1.8c-0.1 0.4-0.1 0.7-0.1 1.4v1.7c0.3 0 0.4 0 0.6-0.1v2.1c-0.2 0-0.3-0.1-0.6-0.1v5.5c0 0.8 0 1.4 0.1 1.8h-1.8c0-0.4 0.1-1 0.1-1.8v-5.5c-0.3 0-0.5 0-0.8 0.1v-2c0.3 0.1 0.5 0.1 0.8 0.1v-1.7zM51.2 19.4c-0.5 0-0.9 0-1.3 0.1v-1.7c0.3 0 0.8 0.1 1.4 0.1h3.1v-0.4h-3c-0.6 0-0.8 0-1 0 0-0.5 0-0.8 0-1.2v-2.3c0-0.6 0-0.8 0-1.1 0.3 0 0.5 0.1 1 0.1h1.4v-0.4h-1.5c-0.5 0-1 0-1.3 0.1v-1.7c0.4 0.1 0.8 0.1 1.3 0.1h1.5c0-0.3 0-0.6-0.1-0.9h1.7c0 0.3-0.1 0.6-0.1 0.9h0.7c-0.2-0.3-0.2-0.4-0.4-0.7l1.2-0.4c0.2 0.4 0.4 0.6 0.6 1.1 0.3 0 0.5 0 0.7-0.1v1.7c-0.3 0-0.6-0.1-1.2-0.1h-1.6v0.4h1.5c0.5 0 0.8 0 1.1-0.1 0 0.4 0 0.6 0 1.1v2.3c0 0.4 0 0.7 0 1.2-0.2 0-0.3 0-0.9 0v0.4h0.3c0.5 0 0.7 0 1-0.1v1.7c-0.3-0.1-0.5-0.1-1-0.1h-0.3v1.3c0 0.6-0.2 1-0.5 1.2s-0.7 0.2-1.4 0.2c-0.2 0-0.4 0-0.7 0-0.1-0.5-0.1-0.7-0.3-1.1l-1 1c-0.5-0.8-0.8-1.2-1.5-1.8l1-0.8h-0.4zM51.9 14.5h0.8v-0.4h-0.8v0.4zM51.9 16.1h0.8v-0.4h-0.8v0.4zM52.1 19.4c0.4 0.4 0.6 0.6 0.9 1 0.3 0 0.7 0.1 0.9 0.1 0.4 0 0.4 0 0.4-0.3v-0.8h-2.2zM54.3 14.5h1v-0.4h-1v0.4zM54.3 16.1h1v-0.4h-1v0.4z"></path>
    </symbol>
    <symbol id="icon-logoframe" viewBox="0 0 58 32">
    <path d="M0.2 9.7c0 0-0.2-1.8 1.4-3.1 1.6-1.4 6-5 7.1-5.6 1.7-1 3.1-0.4 4.8 0.3 4.5 1.9 4.1 1.7 10.2 4.3 3.3 1.4 3.8 1.6 3.3 4.6-1.8 9-2.1 10-4.7 18.2-0.6 1.7-2 3.7-5.6 2.8-6.5-1.6-6.7-1.6-13.1-3.5-2.2-0.7-2.3-2.8-2.4-4.6-0.6-7.2-0.6-7.5-1-13.4z"></path>
    </symbol>
    <symbol id="icon-logotext" viewBox="0 0 58 32">
    <path d="M23.7 16.4v0c0 0 1-1 1-2.6 0-1.9-1.4-3.4-3.6-3.4-2.3 0-3.6 1.7-3.6 3.5 0 1.5 1 2.3 1 2.3v0c0 0-1 0.8-1.3 2-0.2-0.7-0.6-1.4-1.2-1.9v0c0 0 1-1 1-2.5 0-1.9-1.4-3.4-3.6-3.4-2.3 0-3.6 1.7-3.6 3.5 0 1.5 1 2.3 1 2.3v0c0 0-1.4 1.2-1.4 2.8 0 0.4 0.1 0.8 0.2 1.2 0 0 0 0 0 0h-0.8c-0.2 0-0.2-0.2-0.2-0.3v-9c0-0.2-0.2-0.3-0.3-0.3h-2c-0.1 0-0.2 0-0.2 0.1l-1.4 1.4c-0.1 0.1-0.1 0.2-0.1 0.3v2c0 0.2 0.2 0.2 0.3 0.1l1-1v6.5c0 0.2 0 0.3-0.2 0.3h-0.8c-0.2 0-0.3 0.2-0.3 0.3v1.7c0 0.2 0.2 0.3 0.3 0.3h4.7c0.2 0 0.3-0.2 0.3-0.3v-1.3c0.7 1.1 1.9 1.8 3.5 1.8 2.1 0 3.5-1.3 3.9-2.8 0.4 1.7 1.9 2.9 3.9 2.8 2.6 0 4-1.9 4-3.7-0.2-1-0.6-2-1.5-2.7zM13.2 13.1c0.6 0 1 0.3 1 0.9s-0.3 1.2-0.6 1.2c-0.1 0-0.4-0.1-0.5-0.2-0.6-0.3-1-0.6-1-1.1 0.1-0.3 0.4-0.8 1.1-0.8zM13.1 20.1c-0.8 0-1.3-0.5-1.3-1.2s0.4-1.4 0.7-1.4c0.1 0 0.3 0.1 0.8 0.3 0.7 0.3 1.2 0.6 1.2 1.2-0.1 0.6-0.6 1.1-1.4 1.1zM21 13.1c0.6 0 1 0.3 1 0.9s-0.3 1.2-0.6 1.2c-0.1 0-0.4-0.1-0.5-0.2-0.6-0.3-1-0.6-1-1.1 0.1-0.3 0.5-0.8 1.1-0.8zM20.9 20.1c-0.8 0-1.3-0.5-1.3-1.2s0.4-1.4 0.7-1.4c0.1 0 0.3 0.1 0.8 0.3 0.7 0.3 1.2 0.6 1.2 1.2s-0.6 1.1-1.4 1.1z"></path>
    </symbol>
    </defs>
    </svg>
